<svg width="120" height="160" viewBox="0 0 120 160" xmlns="http://www.w3.org/2000/svg">
  <!-- Background circle -->
  <circle cx="60" cy="60" r="48" fill="#E6F1FF"></circle>

  <!-- Head -->
  <circle cx="60" cy="54" r="18" fill="#FFE0B2"></circle>
  <!-- Hair -->
  <path d="M44 52 C46 38 74 38 76 52 C72 48 68 46 60 46 C52 46 48 48 44 52 Z" fill="#37474F"></path>

  <!-- Body -->
  <path d="M34 102 C36 84 44 74 60 74 C76 74 84 84 86 102 Z" fill="#1B4B66"></path>
  <!-- Collar -->
  <path d="M52 74 L60 86 L68 74 Z" fill="#FFFFFF" opacity="0.9"></path>

  <!-- Arms (hug-like) -->
  <path d="M34 102 C26 110 24 122 28 128 C34 136 46 134 50 126" fill="none" stroke="#1B4B66" stroke-width="4" stroke-linecap="round"></path>
  <path d="M86 102 C94 110 96 122 92 128 C86 136 74 134 70 126" fill="none" stroke="#1B4B66" stroke-width="4" stroke-linecap="round"></path>

  <!-- Ground shadow -->
  <ellipse cx="60" cy="140" rx="30" ry="6" fill="#C1CDEB" opacity="0.5"></ellipse>
</svg>
