<svg width="400" height="260" viewBox="0 0 400 260" xmlns="http://www.w3.org/2000/svg">
  <!-- Background card -->
  <rect x="20" y="20" rx="20" ry="20" width="360" height="220" fill="#FFFFFF"></rect>
  <!-- Accent border -->
  <rect x="20" y="20" rx="20" ry="20" width="360" height="220" fill="none" stroke="#1B4B66" stroke-width="2"></rect>

  <!-- Top badge -->
  <rect x="36" y="36" rx="10" ry="10" width="90" height="28" fill="#E6F1FF"></rect>
  <circle cx="52" cy="50" r="6" fill="#4F96FF"></circle>
  <rect x="64" y="44" rx="4" ry="4" width="50" height="12" fill="#C3D8FF"></rect>

  <!-- Title lines -->
  <rect x="36" y="80" rx="4" ry="4" width="190" height="10" fill="#DDE3F0"></rect>
  <rect x="36" y="98" rx="4" ry="4" width="140" height="10" fill="#EDF1FA"></rect>

  <!-- Filter pills -->
  <rect x="36" y="128" rx="16" ry="16" width="110" height="28" fill="#F5F7FF"></rect>
  <circle cx="52" cy="142" r="6" fill="#8E56E8"></circle>
  <rect x="64" y="136" rx="6" ry="6" width="70" height="12" fill="#E4D5FF"></rect>

  <rect x="154" y="128" rx="16" ry="16" width="110" height="28" fill="#F5F7FF"></rect>
  <circle cx="170" cy="142" r="6" fill="#FFB74D"></circle>
  <rect x="182" y="136" rx="6" ry="6" width="70" height="12" fill="#FFE0B2"></rect>

  <rect x="272" y="128" rx="16" ry="16" width="90" height="28" fill="#F5F7FF"></rect>
  <circle cx="288" cy="142" r="6" fill="#4F96FF"></circle>
  <rect x="300" y="136" rx="6" ry="6" width="50" height="12" fill="#C3D8FF"></rect>

  <!-- Search bar -->
  <rect x="36" y="170" rx="16" ry="16" width="230" height="36" fill="#F3F5FB"></rect>
  <circle cx="52" cy="188" r="7" fill="#C3CADB"></circle>
  <rect x="68" y="178" rx="8" ry="8" width="180" height="20" fill="#E5E8F2"></rect>

  <!-- Search button -->
  <rect x="280" y="170" rx="18" ry="18" width="90" height="36" fill="#1B4B66"></rect>
  <circle cx="298" cy="188" r="7" fill="#FFFFFF"></circle>
  <rect x="312" y="180" rx="6" ry="6" width="50" height="16" fill="#FFFFFF" opacity="0.9"></rect>

  <!-- Bottom hint line -->
  <rect x="36" y="216" rx="3" ry="3" width="180" height="8" fill="#E1E6F2"></rect>
</svg>
